<svg xmlns="http://www.w3.org/2000/svg" xmlns:xlink="http://www.w3.org/1999/xlink" width="50" height="50" viewBox="0 0 50 50"><defs><clipPath id="a"><rect width="50" height="50" transform="translate(517 2750)" fill="#fff" stroke="#707070" stroke-width="1"/></clipPath></defs><g transform="translate(-517 -2750)" clip-path="url(#a)"><g transform="translate(517 2750)"><rect width="50" height="50" rx="4" fill="#45d"/><path d="M30.078,26.66c-.293-.2-.586-.293-.879.1L28.027,28.32a.727.727,0,0,1-.879.1,11.342,11.342,0,0,1-5.273-4.59.738.738,0,0,1,.293-.781l.879-1.367c.2-.2.1-.391,0-.586l-1.172-2.832c-.293-.781-.586-.684-.879-.684h-.781a1.484,1.484,0,0,0-.977.488c-2.148,2.148-1.27,5.176.293,7.129a14.963,14.963,0,0,0,6.445,5.762c3.125,1.367,3.809,1.172,4.688.977A3.733,3.733,0,0,0,33.3,30.078c.1-.293.586-1.562.2-1.758"/><path d="M25.781,37.5a13.347,13.347,0,0,1-7.031-2.148l-4.785,1.27,1.172-4.687A13.963,13.963,0,0,1,13.184,25.1,12.941,12.941,0,0,1,26.074,12.207a12.213,12.213,0,0,1,12.3,12.4A12.883,12.883,0,0,1,25.781,37.5M10.254,40.332l8.105-2.246A15.43,15.43,0,0,0,40.82,24.414,15,15,0,0,0,25.781,9.277,15.43,15.43,0,0,0,12.4,32.324"/></g></g></svg>